<?xml version="1.0" standalone="no"?>
<!DOCTYPE svg PUBLIC "-//W3C//DTD SVG 20010904//EN"
 "http://www.w3.org/TR/2001/REC-SVG-20010904/DTD/svg10.dtd">
<svg version="1.0" xmlns="http://www.w3.org/2000/svg"
 width="800.000000pt" height="774.000000pt" viewBox="0 0 800.000000 774.000000"
 preserveAspectRatio="xMidYMid meet">

<g transform="translate(0.000000,774.000000) scale(0.100000,-0.100000)"
fill="#FFFFFF" stroke="none">
<path d="M3740 6665 c-363 -50 -698 -205 -977 -454 -56 -49 -107 -99 -115
-109 -7 -11 -30 -38 -52 -62 l-38 -42 -127 30 c-184 46 -278 55 -490 49 -211
-5 -338 -26 -511 -84 -290 -97 -525 -247 -745 -474 -141 -147 -227 -268 -318
-450 -338 -670 -253 -1452 221 -2040 292 -362 743 -606 1216 -659 49 -5 91
-12 94 -15 3 -3 84 -409 179 -903 96 -493 176 -902 178 -909 3 -8 36 5 97 37
264 137 685 251 1138 307 184 22 769 25 955 5 455 -51 905 -176 1170 -327 43
-25 79 -44 80 -42 1 1 81 413 179 916 97 503 178 916 179 917 2 2 46 8 98 14
799 91 1436 675 1605 1475 32 150 44 438 24 604 -83 716 -587 1330 -1271 1549
-181 58 -276 73 -494 79 -220 5 -326 -6 -512 -53 l-103 -26 -107 112 c-307
321 -674 505 -1113 560 -112 13 -322 11 -440 -5z m361 -365 c194 -19 340 -60
514 -144 242 -118 446 -302 595 -537 l54 -86 81 37 c106 49 216 85 339 112
136 29 409 32 536 5 204 -43 390 -120 555 -228 172 -114 393 -366 490 -558
119 -239 176 -527 154 -790 -37 -455 -295 -893 -674 -1146 -282 -187 -572
-260 -879 -220 -75 10 -139 15 -142 12 -3 -2 -72 -380 -153 -838 -115 -646
-151 -834 -162 -833 -8 1 -62 16 -121 33 -814 239 -1915 237 -2680 -6 -61 -19
-111 -33 -113 -31 -2 2 -74 368 -160 813 -86 446 -159 818 -162 829 -5 17 -13
18 -102 12 -253 -18 -556 53 -786 185 -378 217 -633 572 -726 1009 -30 141
-32 417 -5 560 117 606 561 1063 1159 1192 146 31 418 31 564 0 120 -26 252
-71 345 -118 l66 -33 76 114 c214 321 528 540 896 624 157 36 292 46 441 31z"/>
<path d="M3995 5676 c-17 -7 -35 -19 -41 -27 -33 -40 -62 -218 -85 -514 -16
-223 -24 -1784 -9 -1887 15 -107 44 -181 89 -231 l36 -40 -2 -101 c-1 -56 -13
-211 -27 -346 -38 -369 -49 -569 -43 -735 7 -172 25 -267 65 -345 48 -95 135
-131 167 -69 71 136 84 742 35 1659 -5 102 -12 709 -15 1350 -7 1278 -4 1222
-66 1275 -34 28 -59 31 -104 11z"/>
<path d="M2050 5493 c0 -4 68 -212 152 -461 150 -443 153 -453 133 -468 -48
-36 -49 -34 -247 431 -108 255 -193 440 -200 440 -7 0 -12 -4 -11 -10 1 -5 69
-210 152 -454 83 -244 151 -447 151 -452 0 -5 -12 -16 -26 -25 -24 -16 -26
-16 -44 2 -10 10 -100 211 -200 447 -117 273 -187 427 -196 427 -8 0 -14 -1
-14 -2 0 -2 68 -201 150 -442 83 -242 150 -452 150 -468 0 -21 -6 -29 -26 -34
-16 -4 -31 -2 -39 7 -8 8 -96 208 -196 444 -100 237 -184 432 -186 434 -2 3
-8 0 -13 -5 -9 -9 357 -1071 392 -1139 29 -54 79 -91 154 -113 81 -25 141 -65
183 -123 16 -22 66 -131 109 -242 44 -111 137 -346 207 -522 183 -464 233
-618 371 -1150 114 -438 158 -563 223 -638 28 -31 40 -37 72 -37 45 0 136 32
173 61 67 53 36 181 -118 488 -41 80 -130 256 -198 391 -201 396 -249 513
-548 1329 -84 229 -124 351 -127 391 -7 71 15 144 61 210 28 41 31 51 31 125
l0 80 -225 539 c-192 461 -249 584 -250 539z"/>
<path d="M5917 5450 c-237 -60 -460 -327 -546 -655 -72 -272 -42 -466 92 -593
61 -57 71 -86 57 -163 -10 -51 -307 -930 -380 -1124 -64 -171 -147 -360 -287
-650 -75 -154 -157 -329 -185 -389 -104 -230 -133 -365 -87 -415 49 -52 188
-87 232 -58 33 22 90 135 126 252 17 55 65 244 106 420 85 360 108 447 172
660 54 180 425 1193 458 1250 40 69 61 82 145 88 162 13 304 126 407 323 108
207 138 323 138 529 0 158 -16 239 -67 339 -32 63 -113 141 -171 166 -58 25
-153 34 -210 20z m249 -255 c43 -29 67 -110 72 -236 9 -236 -79 -483 -192
-543 -35 -18 -41 -18 -65 -5 -39 22 -39 89 -2 268 17 80 40 214 52 296 24 180
45 235 86 235 16 0 38 -7 49 -15z"/>
</g>
</svg>
